<mxfile host="app.diagrams.net" modified="2021-03-18T08:29:48.242Z" agent="5.0 (Macintosh)" etag="3tlB_PgFrVCcQhSvBOzz" version="14.4.9" type="github">
  <diagram name="Page-1" id="822b0af5-4adb-64df-f703-e8dfc1f81529">
    <mxGraphModel dx="1155" dy="833" grid="1" gridSize="10" guides="1" tooltips="1" connect="1" arrows="1" fold="1" page="1" pageScale="1" pageWidth="1100" pageHeight="850" background="#ffffff" math="0" shadow="0">
      <root>
        <mxCell id="0" />
        <mxCell id="1" parent="0" />
        <mxCell id="aRxezdlJnfntzo9iZ2Ve-1" value="" style="verticalLabelPosition=bottom;aspect=fixed;html=1;verticalAlign=top;strokeColor=none;align=center;outlineConnect=0;shape=mxgraph.citrix.tablet_2;" vertex="1" parent="1">
          <mxGeometry x="100" y="200" width="82" height="86" as="geometry" />
        </mxCell>
        <mxCell id="aRxezdlJnfntzo9iZ2Ve-3" value="" style="verticalLabelPosition=bottom;aspect=fixed;html=1;verticalAlign=top;strokeColor=none;align=center;outlineConnect=0;shape=mxgraph.citrix.laptop_2;" vertex="1" parent="1">
          <mxGeometry x="70" y="514.25" width="116" height="86.5" as="geometry" />
        </mxCell>
        <mxCell id="aRxezdlJnfntzo9iZ2Ve-4" value="" style="verticalLabelPosition=bottom;aspect=fixed;html=1;verticalAlign=top;strokeColor=none;align=center;outlineConnect=0;shape=mxgraph.citrix.desktop_web;" vertex="1" parent="1">
          <mxGeometry x="750" y="370" width="76.5" height="90" as="geometry" />
        </mxCell>
        <mxCell id="aRxezdlJnfntzo9iZ2Ve-6" value="" style="verticalLabelPosition=bottom;aspect=fixed;html=1;verticalAlign=top;strokeColor=none;align=center;outlineConnect=0;shape=mxgraph.citrix.database_server;" vertex="1" parent="1">
          <mxGeometry x="925.5" y="160" width="80" height="90" as="geometry" />
        </mxCell>
        <mxCell id="aRxezdlJnfntzo9iZ2Ve-7" value="" style="verticalLabelPosition=bottom;aspect=fixed;html=1;verticalAlign=top;strokeColor=none;align=center;outlineConnect=0;shape=mxgraph.citrix.file_server;" vertex="1" parent="1">
          <mxGeometry x="930" y="512" width="71" height="97" as="geometry" />
        </mxCell>
        <mxCell id="aRxezdlJnfntzo9iZ2Ve-10" value="" style="endArrow=none;html=1;" edge="1" parent="1" source="aRxezdlJnfntzo9iZ2Ve-4" target="aRxezdlJnfntzo9iZ2Ve-7">
          <mxGeometry width="50" height="50" relative="1" as="geometry">
            <mxPoint x="890" y="460" as="sourcePoint" />
            <mxPoint x="940" y="410" as="targetPoint" />
          </mxGeometry>
        </mxCell>
        <mxCell id="aRxezdlJnfntzo9iZ2Ve-11" value="" style="endArrow=none;html=1;" edge="1" parent="1" target="aRxezdlJnfntzo9iZ2Ve-6">
          <mxGeometry width="50" height="50" relative="1" as="geometry">
            <mxPoint x="800" y="380" as="sourcePoint" />
            <mxPoint x="920" y="248.75" as="targetPoint" />
          </mxGeometry>
        </mxCell>
        <mxCell id="aRxezdlJnfntzo9iZ2Ve-14" value="" style="verticalLabelPosition=bottom;aspect=fixed;html=1;verticalAlign=top;strokeColor=none;align=center;outlineConnect=0;shape=mxgraph.citrix.firewall;" vertex="1" parent="1">
          <mxGeometry x="420" y="363.5" width="75" height="93" as="geometry" />
        </mxCell>
        <mxCell id="aRxezdlJnfntzo9iZ2Ve-15" value="" style="fontColor=#0066CC;verticalAlign=top;verticalLabelPosition=bottom;labelPosition=center;align=center;html=1;outlineConnect=0;fillColor=#CCCCCC;strokeColor=#6881B3;gradientColor=none;gradientDirection=north;strokeWidth=2;shape=mxgraph.networks.comm_link;direction=south;" vertex="1" parent="1">
          <mxGeometry x="260" y="280" width="100" height="30" as="geometry" />
        </mxCell>
        <mxCell id="aRxezdlJnfntzo9iZ2Ve-27" value="" style="html=1;outlineConnect=0;fillColor=#CCCCCC;strokeColor=#6881B3;gradientColor=none;gradientDirection=north;strokeWidth=2;shape=mxgraph.networks.bus;gradientColor=none;gradientDirection=north;fontColor=#ffffff;perimeter=backbonePerimeter;backboneSize=20;" vertex="1" parent="1">
          <mxGeometry x="524" y="405" width="200" height="20" as="geometry" />
        </mxCell>
        <mxCell id="aRxezdlJnfntzo9iZ2Ve-28" value="" style="fontColor=#0066CC;verticalAlign=top;verticalLabelPosition=bottom;labelPosition=center;align=center;html=1;outlineConnect=0;fillColor=#CCCCCC;strokeColor=#6881B3;gradientColor=none;gradientDirection=north;strokeWidth=2;shape=mxgraph.networks.comm_link;direction=south;" vertex="1" parent="1">
          <mxGeometry x="210" y="450" width="100" height="30" as="geometry" />
        </mxCell>
        <mxCell id="aRxezdlJnfntzo9iZ2Ve-29" value="" style="endArrow=none;html=1;" edge="1" parent="1" source="aRxezdlJnfntzo9iZ2Ve-1" target="aRxezdlJnfntzo9iZ2Ve-14">
          <mxGeometry width="50" height="50" relative="1" as="geometry">
            <mxPoint x="600" y="480" as="sourcePoint" />
            <mxPoint x="650" y="430" as="targetPoint" />
          </mxGeometry>
        </mxCell>
        <mxCell id="aRxezdlJnfntzo9iZ2Ve-30" value="" style="endArrow=none;html=1;exitX=1.032;exitY=0.29;exitDx=0;exitDy=0;exitPerimeter=0;" edge="1" parent="1" source="aRxezdlJnfntzo9iZ2Ve-3" target="aRxezdlJnfntzo9iZ2Ve-14">
          <mxGeometry width="50" height="50" relative="1" as="geometry">
            <mxPoint x="600" y="480" as="sourcePoint" />
            <mxPoint x="650" y="430" as="targetPoint" />
          </mxGeometry>
        </mxCell>
        <mxCell id="aRxezdlJnfntzo9iZ2Ve-31" value="" style="endArrow=none;html=1;" edge="1" parent="1" source="aRxezdlJnfntzo9iZ2Ve-7" target="aRxezdlJnfntzo9iZ2Ve-6">
          <mxGeometry width="50" height="50" relative="1" as="geometry">
            <mxPoint x="920" y="360" as="sourcePoint" />
            <mxPoint x="970" y="310" as="targetPoint" />
          </mxGeometry>
        </mxCell>
      </root>
    </mxGraphModel>
  </diagram>
</mxfile>
